<svg width="151" height="40" viewBox="0 0 151 40" fill="none" xmlns="http://www.w3.org/2000/svg">
<path d="M7.872 5.664V32.688H20.832L20.016 38.928H0V5.664H7.872Z" fill="#141414"/>
<path d="M44.2526 31.536C44.2526 32.496 44.3806 33.2 44.6366 33.648C44.9246 34.096 45.3726 34.432 45.9806 34.656L44.3966 39.6C42.8286 39.472 41.5486 39.136 40.5566 38.592C39.5646 38.016 38.7966 37.12 38.2526 35.904C36.5886 38.464 34.0286 39.744 30.5726 39.744C28.0446 39.744 26.0286 39.008 24.5246 37.536C23.0206 36.064 22.2686 34.144 22.2686 31.776C22.2686 28.992 23.2926 26.864 25.3406 25.392C27.3886 23.92 30.3486 23.184 34.2206 23.184H36.8126V22.08C36.8126 20.576 36.4926 19.552 35.8526 19.008C35.2126 18.432 34.0926 18.144 32.4926 18.144C31.6606 18.144 30.6526 18.272 29.4686 18.528C28.2846 18.752 27.0686 19.072 25.8206 19.488L24.0926 14.496C25.6926 13.888 27.3246 13.424 28.9886 13.104C30.6846 12.784 32.2526 12.624 33.6926 12.624C37.3406 12.624 40.0126 13.376 41.7086 14.88C43.4046 16.384 44.2526 18.64 44.2526 21.648V31.536ZM32.7806 34.32C34.5086 34.32 35.8526 33.504 36.8126 31.872V27.36H34.9406C33.2126 27.36 31.9166 27.664 31.0526 28.272C30.2206 28.88 29.8046 29.824 29.8046 31.104C29.8046 32.128 30.0606 32.928 30.5726 33.504C31.1166 34.048 31.8526 34.32 32.7806 34.32Z" fill="#141414"/>
<path d="M71.5264 13.44L63.5104 38.928H54.5344L46.3264 13.44H54.5824L59.0944 33.168L63.7984 13.44H71.5264Z" fill="#141414"/>
<path d="M81.7838 13.44V38.928H74.1998V13.44H81.7838ZM77.9437 0C79.2557 0 80.3278 0.416 81.1598 1.248C82.0238 2.048 82.4557 3.072 82.4557 4.32C82.4557 5.568 82.0238 6.608 81.1598 7.44C80.3278 8.24 79.2557 8.64 77.9437 8.64C76.6317 8.64 75.5598 8.24 74.7278 7.44C73.8958 6.608 73.4798 5.568 73.4798 4.32C73.4798 3.072 73.8958 2.048 74.7278 1.248C75.5598 0.416 76.6317 0 77.9437 0Z" fill="#141414"/>
<path d="M102.675 12.624C104.883 12.624 106.611 13.296 107.859 14.64C109.107 15.984 109.731 17.872 109.731 20.304V38.928H102.147V21.6C102.147 20.32 101.939 19.44 101.523 18.96C101.139 18.448 100.547 18.192 99.7466 18.192C98.2106 18.192 96.7386 19.296 95.3306 21.504V38.928H87.7466V13.44H94.3706L94.8986 16.464C95.9866 15.184 97.1546 14.224 98.4026 13.584C99.6826 12.944 101.107 12.624 102.675 12.624Z" fill="#141414"/>
<path d="M123.034 13.44V38.928H115.45V13.44H123.034ZM119.194 0C120.506 0 121.578 0.416 122.41 1.248C123.274 2.048 123.706 3.072 123.706 4.32C123.706 5.568 123.274 6.608 122.41 7.44C121.578 8.24 120.506 8.64 119.194 8.64C117.882 8.64 116.81 8.24 115.978 7.44C115.146 6.608 114.73 5.568 114.73 4.32C114.73 3.072 115.146 2.048 115.978 1.248C116.81 0.416 117.882 0 119.194 0Z" fill="#141414"/>
<path d="M149.253 31.536C149.253 32.496 149.381 33.2 149.637 33.648C149.925 34.096 150.373 34.432 150.981 34.656L149.397 39.6C147.829 39.472 146.549 39.136 145.557 38.592C144.565 38.016 143.797 37.12 143.253 35.904C141.589 38.464 139.029 39.744 135.573 39.744C133.045 39.744 131.029 39.008 129.525 37.536C128.021 36.064 127.269 34.144 127.269 31.776C127.269 28.992 128.293 26.864 130.341 25.392C132.389 23.92 135.349 23.184 139.221 23.184H141.813V22.08C141.813 20.576 141.493 19.552 140.853 19.008C140.213 18.432 139.093 18.144 137.493 18.144C136.661 18.144 135.653 18.272 134.469 18.528C133.285 18.752 132.069 19.072 130.821 19.488L129.093 14.496C130.693 13.888 132.325 13.424 133.989 13.104C135.685 12.784 137.253 12.624 138.693 12.624C142.341 12.624 145.013 13.376 146.709 14.88C148.405 16.384 149.253 18.64 149.253 21.648V31.536ZM137.781 34.32C139.509 34.32 140.853 33.504 141.813 31.872V27.36H139.941C138.213 27.36 136.917 27.664 136.053 28.272C135.221 28.88 134.805 29.824 134.805 31.104C134.805 32.128 135.061 32.928 135.573 33.504C136.117 34.048 136.853 34.32 137.781 34.32Z" fill="#141414"/>
</svg>
